<?xml version="1.0" standalone="no"?>
<!DOCTYPE svg PUBLIC "-//W3C//DTD SVG 20010904//EN"
 "http://www.w3.org/TR/2001/REC-SVG-20010904/DTD/svg10.dtd">
<svg version="1.0" xmlns="http://www.w3.org/2000/svg"
 width="1001.000000pt" height="1001.000000pt" viewBox="0 0 1001.000000 1001.000000"
 preserveAspectRatio="xMidYMid meet">
<metadata>
Created by potrace 1.14, written by Peter Selinger 2001-2017
</metadata>
<g transform="translate(0.000000,1001.000000) scale(0.100000,-0.100000)"
fill="#000000" stroke="none">
<path d="M9518 10005 c-2 -2 -55 -6 -118 -9 -63 -4 -140 -9 -170 -11 -30 -3
-86 -7 -125 -10 -38 -4 -84 -8 -101 -9 -128 -14 -188 -21 -264 -31 -19 -2 -59
-7 -89 -11 -30 -3 -63 -8 -75 -10 -12 -3 -37 -7 -56 -9 -19 -2 -51 -7 -70 -10
-54 -10 -107 -18 -186 -31 -20 -3 -46 -8 -58 -11 -11 -2 -32 -6 -46 -8 -14 -2
-25 -4 -25 -5 0 -2 -23 -7 -75 -15 -24 -4 -52 -11 -62 -16 -12 -7 -18 -6 -18
1 0 6 -5 8 -12 3 -14 -8 -16 -9 -63 -18 -16 -3 -48 -11 -70 -17 -22 -6 -50
-11 -62 -11 -13 0 -23 -3 -23 -8 0 -4 -8 -8 -17 -7 -10 0 -28 -3 -40 -6 -22
-6 -35 -9 -98 -22 -16 -3 -34 -9 -40 -12 -5 -3 -18 -7 -30 -8 -22 -3 -235 -59
-275 -73 -14 -5 -52 -17 -85 -26 -33 -9 -109 -33 -170 -52 -60 -19 -118 -36
-129 -38 -10 -3 -24 -9 -32 -16 -8 -6 -14 -9 -14 -6 0 3 -51 -13 -112 -35 -62
-22 -119 -40 -125 -41 -7 0 -13 -5 -13 -10 0 -6 -3 -8 -6 -5 -3 4 -24 -2 -47
-12 -60 -25 -81 -33 -92 -35 -5 0 -21 -6 -35 -12 -14 -6 -50 -21 -80 -32 -30
-12 -69 -28 -87 -36 -17 -8 -34 -15 -37 -15 -3 0 -35 -13 -71 -30 -36 -16 -68
-30 -71 -30 -4 0 -36 -14 -73 -31 -36 -17 -84 -39 -106 -49 -22 -10 -93 -43
-158 -74 -65 -31 -123 -56 -128 -56 -5 0 -9 -5 -9 -12 0 -6 -3 -9 -6 -5 -3 3
-29 -7 -57 -22 -29 -16 -99 -53 -157 -83 -112 -59 -174 -93 -230 -125 -19 -11
-56 -31 -81 -45 -25 -14 -76 -44 -113 -67 -38 -22 -70 -41 -73 -41 -2 0 -19
-11 -37 -25 -18 -14 -36 -25 -41 -25 -4 0 -41 -22 -82 -50 -41 -27 -77 -50
-80 -50 -6 0 -376 -250 -383 -259 -3 -4 -18 -15 -35 -25 -35 -22 -258 -186
-265 -196 -3 -3 -23 -19 -45 -35 -53 -39 -277 -219 -308 -247 -14 -13 -43 -37
-64 -55 -42 -35 -50 -41 -153 -133 -261 -231 -482 -450 -773 -764 -39 -42
-126 -141 -157 -179 -14 -17 -38 -43 -54 -59 -16 -15 -26 -28 -22 -28 4 0 -7
-13 -24 -30 -16 -16 -30 -32 -30 -35 0 -4 -12 -20 -27 -35 -16 -16 -38 -42
-50 -57 -12 -15 -37 -46 -55 -69 -19 -22 -58 -74 -88 -115 -30 -41 -60 -78
-67 -82 -7 -4 -13 -14 -13 -22 0 -7 -4 -15 -8 -17 -5 -1 -26 -28 -48 -58 -21
-30 -43 -60 -49 -66 -5 -6 -17 -22 -25 -34 -8 -13 -30 -43 -47 -67 -18 -24
-33 -48 -33 -53 0 -6 -4 -10 -8 -10 -4 0 -23 -25 -42 -56 -19 -31 -39 -62 -45
-68 -14 -15 -175 -264 -175 -271 0 -3 -5 -11 -10 -18 -35 -41 -340 -567 -340
-586 0 -3 -11 -23 -25 -44 -14 -20 -23 -37 -19 -37 3 0 2 -6 -4 -12 -14 -18
-158 -308 -167 -335 -3 -13 -11 -23 -16 -23 -5 0 -9 -7 -9 -15 0 -9 -11 -38
-25 -65 -14 -27 -25 -56 -25 -64 0 -8 -4 -16 -8 -18 -5 -1 -30 -55 -56 -118
-27 -63 -56 -133 -66 -155 -10 -22 -29 -71 -44 -110 -15 -38 -31 -79 -36 -90
-5 -11 -19 -47 -31 -80 -11 -33 -27 -73 -34 -90 -15 -35 -58 -164 -61 -184 -2
-8 -6 -17 -11 -20 -4 -3 -8 -10 -8 -16 0 -8 -65 -215 -83 -265 -3 -8 -6 -19
-8 -25 -1 -5 -17 -57 -34 -114 -17 -57 -33 -111 -35 -120 -2 -9 -17 -67 -34
-129 -17 -63 -33 -124 -35 -135 -3 -12 -5 -22 -7 -22 -1 0 -3 -9 -5 -20 -1
-11 -10 -49 -19 -85 -9 -36 -18 -76 -20 -90 -2 -14 -4 -25 -5 -25 -1 0 -3 -7
-5 -15 -2 -8 -7 -26 -10 -40 -4 -14 -8 -34 -9 -45 -1 -11 -4 -24 -8 -30 -3 -5
-4 -18 -3 -27 2 -10 0 -18 -4 -18 -4 0 -7 -8 -8 -17 -2 -28 -11 -88 -13 -88
-2 0 -6 -24 -14 -75 -2 -14 -5 -25 -6 -25 -1 0 -3 -16 -6 -35 -5 -39 -12 -75
-14 -75 -1 0 -3 -16 -5 -35 -3 -19 -8 -51 -11 -70 -4 -19 -8 -44 -9 -55 -1
-11 -5 -38 -9 -60 -4 -22 -9 -58 -12 -80 -3 -22 -7 -56 -10 -75 -3 -19 -7 -51
-9 -70 -3 -19 -7 -55 -10 -80 -4 -25 -9 -67 -11 -95 -3 -27 -7 -66 -9 -85 -2
-19 -7 -71 -10 -115 -4 -44 -8 -96 -10 -115 -9 -78 -19 -283 -19 -405 -1 -112
2 -137 21 -176 30 -67 88 -126 152 -157 l56 -27 760 0 760 0 48 24 c26 13 61
36 77 51 16 15 32 25 35 22 3 -3 5 2 5 11 0 9 7 20 16 25 9 5 15 12 15 16 -1
3 6 20 15 37 25 49 29 78 39 264 3 61 7 133 10 160 7 90 15 179 20 220 3 22 7
65 10 95 3 30 8 69 11 85 3 17 7 46 9 65 5 49 14 111 19 135 2 11 7 43 11 70
5 28 9 52 10 55 0 3 4 26 8 51 12 70 17 98 34 179 8 41 17 86 19 100 3 14 9
41 14 60 5 19 11 46 14 60 2 14 9 45 15 70 7 25 13 53 16 63 2 10 6 26 9 35 3
9 7 28 10 42 3 14 12 50 21 80 9 30 18 62 20 71 2 9 13 49 25 90 12 40 24 84
27 98 2 14 7 28 11 31 4 3 8 10 8 15 1 6 14 51 30 100 16 50 29 92 29 95 1 3
4 12 8 20 12 31 42 115 43 120 0 3 4 14 9 25 4 11 28 72 52 135 25 63 50 126
56 140 6 14 11 30 12 35 0 6 14 37 29 70 16 33 29 66 29 73 0 6 4 12 9 12 4 0
8 4 8 9 0 5 14 40 32 78 17 37 32 74 34 82 1 8 9 18 16 22 7 5 9 9 5 9 -11 0
205 421 289 561 19 31 34 62 34 68 0 6 5 11 10 11 6 0 10 5 10 11 0 6 15 34
33 62 18 29 37 60 42 69 31 55 150 234 157 236 4 2 8 8 8 13 0 8 100 157 125
186 5 7 26 35 45 63 44 65 238 317 299 390 25 30 53 63 61 73 8 11 27 32 43
47 15 16 27 31 27 34 0 3 12 18 28 34 15 16 59 64 97 108 137 154 540 550 653
642 22 18 54 45 70 60 55 50 116 101 257 212 77 60 145 114 152 120 7 5 17 10
23 10 5 0 10 3 10 8 0 4 20 21 45 37 24 17 45 33 45 38 0 4 5 7 11 7 6 0 28
13 48 29 44 35 398 271 406 271 3 0 29 16 58 35 28 19 57 35 64 35 6 0 13 4
15 8 2 5 35 26 73 47 39 21 72 41 75 44 7 8 83 48 325 170 245 124 345 171
363 171 6 0 12 4 12 10 0 5 3 9 8 8 8 -1 22 4 110 43 34 15 62 25 62 22 0 -3
6 -1 13 4 6 5 50 24 97 42 47 18 94 37 105 42 37 16 269 99 290 104 11 2 44
13 73 24 29 11 55 20 57 20 3 0 30 8 60 16 30 9 56 15 57 14 2 -1 12 3 23 9
17 8 157 48 235 67 8 2 16 4 18 5 2 3 2 3 57 15 22 4 46 10 53 12 6 1 20 5 30
7 9 3 17 5 17 6 0 1 9 3 20 5 34 6 78 15 120 27 22 5 51 12 65 14 14 3 39 7
55 11 17 4 35 7 40 8 8 0 87 16 105 20 8 2 93 16 125 21 17 3 37 7 45 9 8 2
40 7 70 10 30 4 57 8 60 10 3 1 32 6 65 9 85 10 129 15 178 22 42 5 82 9 187
19 121 10 189 16 269 20 46 3 87 8 92 10 4 3 10 1 14 -5 4 -6 9 -8 13 -6 4 2
25 7 47 10 52 8 135 38 135 48 0 4 4 8 10 8 30 0 110 100 133 167 15 45 17 91
16 563 0 190 1 392 2 450 1 58 1 111 0 118 -2 23 -2 47 -2 197 0 83 -2 166 -5
185 -15 92 -77 177 -167 226 -49 27 -59 29 -179 30 -70 0 -129 0 -130 -1z"/>
<path d="M9677 7214 c-3 -3 -44 -7 -92 -9 -86 -4 -167 -10 -280 -21 -33 -3
-73 -7 -90 -9 -16 -1 -66 -7 -110 -13 -44 -6 -105 -14 -135 -18 -30 -3 -57 -7
-60 -9 -3 -2 -27 -6 -55 -9 -27 -4 -72 -11 -100 -16 -27 -5 -66 -12 -85 -15
-19 -3 -42 -8 -50 -10 -8 -2 -31 -7 -50 -10 -19 -3 -51 -10 -70 -15 -33 -9
-54 -13 -117 -25 -16 -3 -35 -8 -43 -11 -8 -3 -28 -8 -45 -11 -38 -7 -46 -9
-65 -16 -20 -7 -59 -17 -95 -23 -16 -4 -38 -10 -48 -16 -10 -5 -21 -7 -24 -4
-4 3 -12 1 -20 -5 -7 -6 -13 -8 -13 -4 0 4 -7 2 -15 -5 -8 -6 -19 -9 -25 -5
-5 3 -10 2 -10 -3 0 -5 -6 -9 -12 -9 -7 0 -47 -11 -88 -23 -41 -13 -77 -24
-80 -25 -43 -10 -127 -42 -132 -50 -4 -5 -8 -7 -8 -3 0 4 -26 -2 -57 -14 -32
-11 -64 -20 -70 -21 -7 0 -13 -4 -13 -9 0 -4 -7 -8 -15 -8 -12 0 -210 -76
-300 -115 -16 -7 -52 -23 -80 -35 -75 -32 -92 -40 -315 -150 -113 -55 -227
-113 -255 -128 -86 -47 -247 -141 -312 -182 -35 -21 -63 -36 -63 -32 0 4 -4 2
-8 -4 -4 -6 -51 -39 -104 -74 -54 -34 -98 -66 -98 -71 0 -5 -4 -8 -8 -6 -4 1
-43 -23 -86 -53 -43 -30 -86 -59 -95 -65 -9 -5 -18 -12 -21 -15 -3 -3 -32 -25
-65 -50 -71 -54 -290 -225 -325 -256 -85 -73 -144 -125 -215 -188 -104 -93
-426 -415 -490 -491 -27 -32 -61 -71 -75 -85 -54 -58 -90 -100 -194 -230 -60
-74 -117 -145 -127 -158 -11 -12 -19 -26 -19 -31 0 -5 -3 -11 -7 -13 -14 -6
-177 -228 -168 -228 4 0 -1 -7 -10 -16 -13 -14 -93 -132 -142 -210 -7 -10 -32
-50 -56 -89 -79 -126 -168 -280 -166 -289 0 -5 -3 -12 -8 -15 -6 -3 -25 -35
-44 -71 -18 -36 -37 -68 -42 -71 -5 -3 -8 -9 -7 -13 1 -4 -22 -53 -51 -109
-29 -56 -52 -105 -51 -109 1 -5 -2 -8 -6 -8 -4 0 -9 -10 -9 -22 -1 -13 -7 -24
-13 -26 -5 -2 -10 -7 -10 -12 0 -5 -13 -37 -29 -72 -73 -159 -237 -570 -246
-619 -2 -8 -10 -32 -19 -52 -8 -21 -15 -38 -14 -40 1 -1 -7 -27 -17 -57 -11
-30 -20 -58 -21 -62 -1 -5 -2 -9 -4 -10 -1 -2 -3 -12 -5 -23 -2 -11 -18 -67
-35 -125 -17 -58 -33 -112 -35 -120 -2 -8 -15 -62 -30 -120 -32 -130 -34 -138
-41 -174 -2 -16 -6 -32 -8 -35 -2 -3 -7 -22 -10 -41 -3 -19 -15 -82 -26 -140
-11 -58 -23 -121 -26 -140 -3 -19 -7 -44 -9 -55 -12 -74 -15 -94 -21 -130 -3
-22 -7 -56 -10 -75 -12 -103 -15 -124 -20 -132 -3 -4 0 -8 7 -8 9 0 9 -3 0
-14 -6 -8 -11 -18 -9 -22 1 -5 -2 -40 -6 -79 -14 -132 -16 -170 -20 -314 -4
-132 -2 -149 18 -190 25 -54 31 -63 71 -103 30 -29 88 -64 129 -76 11 -4 345
-8 741 -10 749 -3 787 -2 865 39 48 24 144 123 130 133 -3 1 2 11 10 20 8 10
16 28 18 39 5 32 10 52 12 52 2 0 4 17 14 155 7 95 15 175 22 220 3 19 7 49 9
65 2 17 6 44 9 60 3 17 7 48 11 70 3 23 8 52 11 65 3 14 6 33 6 42 -1 10 4 20
9 23 5 4 7 10 4 15 -6 9 50 257 90 403 48 170 176 538 197 565 6 6 7 12 4 12
-4 0 -1 10 6 23 7 12 11 25 10 29 -1 5 2 8 8 8 6 0 9 3 8 8 -3 14 14 62 23 62
5 0 9 5 9 11 0 5 11 35 25 65 14 30 25 59 25 63 0 5 3 11 8 13 4 2 35 59 70
128 75 151 105 204 115 208 4 2 7 9 7 15 0 7 16 36 35 64 19 29 35 54 35 57 0
4 60 98 78 121 4 6 24 37 46 69 21 33 43 64 47 70 5 6 35 48 68 92 33 45 66
90 74 100 9 11 41 51 72 89 176 219 437 489 639 660 26 22 57 50 69 63 11 12
24 22 29 22 4 0 16 8 26 18 10 9 33 28 51 42 18 14 38 30 44 35 7 6 59 45 117
88 58 42 110 81 117 87 7 5 15 10 18 10 8 0 68 43 77 55 4 6 8 7 8 3 0 -7 14
3 54 37 6 6 17 11 23 12 6 1 31 15 55 31 23 16 59 38 78 48 19 10 37 21 40 24
3 3 28 17 55 30 28 14 52 28 55 31 3 4 73 40 155 81 126 63 225 107 480 214
17 6 49 18 73 25 23 7 42 15 42 19 0 4 6 7 13 7 10 -1 178 49 292 88 39 13
266 70 315 79 14 2 59 12 100 21 41 9 86 18 100 20 14 2 40 6 58 9 90 16 169
27 222 31 25 2 45 4 45 5 0 1 18 3 40 5 22 2 65 6 95 10 30 3 82 8 115 10 75
5 117 13 130 26 5 5 16 9 25 9 29 0 128 98 156 156 33 67 33 77 33 524 0 190
1 392 2 450 1 58 1 111 0 118 -2 23 -2 47 -2 232 0 233 -3 261 -36 322 -49 91
-140 156 -224 163 -21 2 -42 6 -47 9 -5 3 -12 3 -15 0z"/>
<path d="M9644 4420 c-3 -2 -26 -5 -52 -7 -26 -1 -65 -4 -87 -7 -112 -14 -134
-17 -188 -27 -32 -6 -70 -12 -85 -14 -15 -2 -71 -13 -126 -25 -158 -35 -171
-38 -171 -40 0 -1 -7 -3 -15 -5 -8 -1 -35 -8 -60 -16 -25 -7 -50 -13 -57 -15
-21 -4 -177 -55 -263 -86 -83 -30 -99 -36 -190 -74 -24 -11 -47 -19 -50 -19
-5 -1 -55 -24 -180 -83 -30 -14 -63 -33 -72 -41 -10 -8 -18 -11 -18 -8 0 8
-127 -60 -151 -80 -9 -7 -18 -11 -21 -8 -3 3 -11 -1 -18 -10 -7 -8 -16 -15
-21 -15 -9 0 -116 -65 -207 -127 -35 -24 -67 -43 -72 -43 -4 0 -10 -4 -12 -8
-1 -4 -25 -23 -53 -42 -68 -48 -56 -39 -195 -148 -154 -122 -219 -181 -385
-347 -155 -157 -199 -205 -285 -310 -35 -44 -68 -81 -72 -83 -5 -2 -8 -10 -8
-17 0 -7 -4 -15 -8 -17 -5 -1 -29 -30 -53 -63 -24 -34 -50 -67 -57 -75 -7 -8
-36 -51 -64 -95 -29 -44 -56 -81 -60 -83 -4 -2 -8 -7 -8 -11 0 -5 -25 -48 -55
-97 -30 -49 -65 -109 -78 -134 -13 -25 -36 -70 -52 -100 -16 -30 -34 -58 -39
-62 -6 -4 -8 -8 -4 -8 4 0 -7 -28 -25 -62 -17 -35 -32 -65 -33 -68 -1 -3 -5
-15 -9 -27 -4 -13 -11 -23 -14 -23 -4 0 -8 -6 -8 -12 -1 -7 -19 -56 -41 -108
-62 -149 -152 -411 -177 -517 -3 -10 -14 -56 -26 -103 -11 -47 -22 -94 -25
-105 -9 -47 -14 -72 -20 -105 -4 -19 -9 -44 -11 -55 -2 -11 -6 -33 -9 -50 -3
-16 -7 -41 -10 -55 -3 -14 -7 -45 -9 -70 -3 -25 -7 -61 -10 -80 -8 -60 -18
-193 -18 -235 0 -102 75 -209 182 -259 l46 -21 1965 0 1965 0 49 24 c62 31
124 93 154 153 23 46 30 90 32 183 1 70 2 337 1 353 -1 6 -1 18 -2 25 -1 23 0
711 2 817 1 58 1 111 0 118 -1 6 -1 18 -2 25 -1 23 0 711 2 817 1 58 1 111 0
118 -1 6 -1 18 -2 25 -1 23 0 711 2 817 1 58 1 111 0 118 -2 24 -2 49 -2 287
0 132 -2 256 -5 275 -5 31 -30 91 -58 140 -14 25 -94 80 -138 96 -40 14 -145
24 -154 14z"/>
</g>
</svg>
