<svg width="1001" height="1000" viewBox="0 0 1001 1000" fill="none" xmlns="http://www.w3.org/2000/svg">
<path fill-rule="evenodd" clip-rule="evenodd" d="M31.5117 1000C13.8326 1000 -0.548762 985.59 0.0160898 967.92C16.8607 440.975 440.976 16.8603 967.921 0.016089C985.591 -0.548748 1000 13.8326 1000 31.5117L1000 167.206C1000 184.879 985.626 199.14 967.966 199.835C551.177 216.232 216.232 551.176 199.835 967.966C199.14 985.625 184.879 1000 167.206 1000L31.5117 1000Z" fill="white"/>
<path fill-rule="evenodd" clip-rule="evenodd" d="M311.285 1000C293.612 1000 279.211 985.639 279.983 967.983C296.271 595.414 595.414 296.271 967.982 279.984C985.639 279.212 1000 293.612 1000 311.285V447.484C1000 465.157 985.636 479.382 967.995 480.452C706.013 496.343 496.343 706.014 480.451 967.995C479.381 985.636 465.157 1000 447.484 1000H311.285Z" fill="white"/>
<path d="M968.003 558.752C985.627 557.437 1000 571.888 1000 589.561V968C1000 985.673 985.673 1000 968 1000H591.424C573.807 1000 559.378 985.715 560.605 968.141C575.667 752.257 752.199 574.857 968.003 558.752Z" fill="white"/>
</svg>
